<svg width="21" height="22" viewBox="0 0 21 22" fill="none" xmlns="http://www.w3.org/2000/svg">
<path d="M20.9999 10.51C20.9979 8.42997 20.3809 6.40001 19.2269 4.68001C18.0719 2.95001 16.4309 1.61002 14.5129 0.810018C12.5939 0.020018 10.483 -0.19007 8.44696 0.21993C6.40996 0.61993 4.53994 1.62993 3.07294 3.08993C1.60494 4.55993 0.605928 6.42993 0.200928 8.46993C-0.203072 10.5099 0.00492704 12.62 0.799927 14.54C1.59493 16.45 2.94093 18.09 4.66693 19.25C6.39393 20.4 8.42394 21.02 10.4999 21.02C10.5619 21.02 10.6229 21.02 10.6849 21.02V12.8399H8.42896V10.1999H10.6849V8.26998C10.6389 7.80998 10.6939 7.34999 10.8459 6.90999C10.9969 6.47999 11.242 6.07996 11.564 5.74996C11.885 5.41996 12.274 5.15996 12.705 4.99996C13.135 4.82996 13.597 4.77001 14.056 4.80001C14.731 4.80001 15.4059 4.82998 16.0779 4.89998V7.24996H14.7C13.613 7.24996 13.4 7.76999 13.4 8.52999V10.1999H15.9999L15.6599 12.8299H13.4V20.6099C15.591 19.9799 17.5179 18.6499 18.8889 16.8299C20.2599 15.0099 21.0009 12.79 20.9999 10.51Z" fill="#3D3017"/>
</svg>
