<svg width="21" height="21" viewBox="0 0 21 21" fill="none" xmlns="http://www.w3.org/2000/svg">
<g opacity="0.81">
<path d="M15.3656 3.81006H5.63354C5.14954 3.81006 4.68557 3.99997 4.34357 4.33997C4.00157 4.68997 3.80859 5.15 3.80859 5.63V15.37C3.80859 15.85 4.00157 16.31 4.34357 16.66C4.68557 17 5.14954 17.1899 5.63354 17.1899H15.3656C15.8486 17.1899 16.3126 17 16.6546 16.66C16.9976 16.31 17.1896 15.85 17.1906 15.37V5.63C17.1896 5.15 16.9976 4.68997 16.6546 4.33997C16.3126 3.99997 15.8486 3.81006 15.3656 3.81006ZM10.4996 14.76C9.65657 14.76 8.83354 14.51 8.13354 14.04C7.43354 13.57 6.88755 12.91 6.56555 12.13C6.24255 11.35 6.15857 10.5 6.32257 9.67004C6.48757 8.84004 6.89259 8.07999 7.48859 7.48999C8.08359 6.88999 8.84258 6.48995 9.66858 6.31995C10.4946 6.15995 11.3506 6.23995 12.1286 6.56995C12.9066 6.88995 13.5716 7.43 14.0396 8.13C14.5076 8.83 14.7576 9.66 14.7576 10.5C14.7556 11.63 14.3065 12.71 13.5085 13.51C12.7105 14.31 11.6276 14.76 10.4996 14.76ZM14.7576 7.45996C14.5166 7.45996 14.2816 7.39 14.0806 7.25C13.8806 7.12 13.7246 6.92996 13.6326 6.70996C13.5406 6.47996 13.5166 6.24 13.5636 6C13.6106 5.77 13.7265 5.55 13.8965 5.38C14.0665 5.21 14.2836 5.09005 14.5196 5.05005C14.7556 5.00005 15.0006 5.02 15.2226 5.12C15.4456 5.21 15.6356 5.36006 15.7686 5.56006C15.9026 5.76006 15.9745 5.99999 15.9745 6.23999C15.9745 6.55999 15.8456 6.86998 15.6176 7.09998C15.3896 7.32998 15.0796 7.45996 14.7576 7.45996Z" fill="#3D3017"/>
<path d="M10.4996 7.35986C9.87963 7.35986 9.27261 7.54989 8.75561 7.88989C8.23961 8.22989 7.83761 8.72993 7.59961 9.29993C7.36261 9.86993 7.30063 10.4999 7.42163 11.1099C7.54263 11.7199 7.84164 12.2798 8.28064 12.7198C8.71964 13.1598 9.27863 13.4598 9.88763 13.5798C10.4966 13.6998 11.1277 13.6399 11.7017 13.3999C12.2747 13.1599 12.7646 12.7599 13.1096 12.2399C13.4546 11.7299 13.6386 11.1199 13.6386 10.4999C13.6376 9.66988 13.3066 8.86991 12.7186 8.27991C12.1296 7.68991 11.3326 7.35986 10.4996 7.35986Z" fill="#3D3017"/>
<path d="M17.883 0H3.117C2.293 0.01 1.505 0.340044 0.921997 0.920044C0.339997 1.51004 0.009 2.29 0 3.12V17.88C0.009 18.71 0.339997 19.49 0.921997 20.08C1.505 20.66 2.293 20.99 3.117 21H17.883C18.707 20.99 19.495 20.66 20.078 20.08C20.66 19.49 20.991 18.71 21 17.88V3.12C20.991 2.29 20.66 1.51004 20.078 0.920044C19.495 0.340044 18.707 0.01 17.883 0ZM18.5 15.42C18.499 16.24 18.175 17.02 17.598 17.6C17.021 18.18 16.238 18.5 15.422 18.5H5.578C4.762 18.5 3.97898 18.18 3.40198 17.6C2.82498 17.02 2.501 16.24 2.5 15.42V5.57996C2.501 4.75996 2.82498 3.98002 3.40198 3.40002C3.97898 2.82002 4.762 2.5 5.578 2.5H15.422C16.238 2.5 17.021 2.82002 17.598 3.40002C18.175 3.98002 18.499 4.75996 18.5 5.57996V15.42Z" fill="#3D3017"/>
</g>
</svg>
