<svg width="21" height="15" viewBox="0 0 21 15" fill="none" xmlns="http://www.w3.org/2000/svg">
<path d="M20.2986 2.27002C20.1796 1.83002 19.9486 1.42999 19.6276 1.10999C19.3076 0.789985 18.9086 0.559941 18.4716 0.439941C16.8496 -5.85914e-05 10.3606 0 10.3606 0C10.3606 0 3.87259 5.37038e-05 2.25059 0.430054C1.81359 0.550054 1.41664 0.789985 1.09764 1.10999C0.777635 1.42999 0.546615 1.83002 0.426615 2.27002C0.131615 3.92002 -0.0113637 5.59001 -0.00136371 7.26001C-0.0123637 8.93001 0.130615 10.6 0.426615 12.24C0.544615 12.68 0.775598 13.08 1.0966 13.4C1.4166 13.72 1.81564 13.9499 2.25364 14.0699C3.89264 14.5099 10.3646 14.51 10.3646 14.51C10.3646 14.51 16.8526 14.51 18.4746 14.09C18.9106 13.97 19.3086 13.74 19.6286 13.42C19.9486 13.1 20.1796 12.7 20.2986 12.26C20.5926 10.61 20.7356 8.95002 20.7256 7.27002C20.7446 5.60002 20.6016 3.92002 20.2986 2.27002ZM8.29862 10.36V4.15002L13.6986 7.26001L8.29862 10.36Z" fill="#5F523C"/>
</svg>
